Archétype 3:2.ufo
<glyph name="comma" format="1">
  <advance width="200"/>
  <unicode hex="002C"/>
  <outline>
    <contour>
      <point x="50" y="-50" type="line"/>
      <point x="81" y="-45"/>
      <point x="93" y="-23"/>
      <point x="93" y="0" type="curve"/>
      <point x="73" y="0" type="line"/>
      <point x="73" y="-18"/>
      <point x="67" y="-28"/>
      <point x="50" y="-34" type="curve"/>
      <point x="50" y="-34" type="line"/>
    </contour>
    <contour>
      <point x="93" y="0" type="line"/>
      <point x="60" y="0" type="line"/>
      <point x="60" y="30" type="line"/>
      <point x="93" y="30" type="line"/>
    </contour>
  </outline>
</glyph>
<glyph name="slash" format="1">
  <advance width="200"/>
  <unicode hex="002F"/>
  <outline>
    <contour>
      <point x="155" y="203" type="move"/>
    </contour>
    <contour>
      <point x="47" y="-3" type="move"/>
    </contour>
    <contour>
      <point x="17" y="-3" type="line"/>
      <point x="155" y="203" type="line"/>
      <point x="183" y="203" type="line"/>
      <point x="47" y="-3" type="line"/>
    </contour>
  </outline>
</glyph>
<glyph name="zero" format="1">
  <advance width="300"/>
  <unicode hex="0030"/>
  <outline>
    <contour>
      <point x="150" y="-6" type="curve" smooth="yes"/>
      <point x="82.0" y="-6.0"/>
      <point x="33.0" y="42.0"/>
      <point x="33" y="101" type="curve" smooth="yes"/>
      <point x="33.0" y="159.0"/>
      <point x="82.0" y="206.0"/>
      <point x="150" y="206" type="curve" smooth="yes"/>
      <point x="217.0" y="206.0"/>
      <point x="267.0" y="159.0"/>
      <point x="267" y="101" type="curve" smooth="yes"/>
      <point x="267.0" y="43.0"/>
      <point x="218.586206897" y="-6.0"/>
    </contour>
    <contour>
      <point x="150" y="175" type="curve" smooth="yes"/>
      <point x="97.6162790698" y="175.0"/>
      <point x="65.0" y="144.0"/>
      <point x="65" y="101" type="curve" smooth="yes"/>
      <point x="65.0" y="57.0"/>
      <point x="97.6162790698" y="25.0"/>
      <point x="150" y="25" type="curve" smooth="yes"/>
      <point x="204.360465116" y="25.0"/>
      <point x="235.0" y="57.0"/>
      <point x="235" y="101" type="curve" smooth="yes"/>
      <point x="235.0" y="144.0"/>
      <point x="204.360465116" y="175.0"/>
    </contour>
    <contour>
      <point x="169" y="82" type="line"/>
      <point x="130" y="82" type="line"/>
      <point x="130" y="118" type="line"/>
      <point x="169" y="118" type="line"/>
    </contour>
  </outline>
</glyph>
<glyph name="one" format="1">
  <advance width="300"/>
  <unicode hex="0031"/>
  <outline>
    <contour>
      <point x="147" y="200" type="line"/>
      <point x="64" y="153" type="line"/>
      <point x="64" y="120" type="line"/>
      <point x="147" y="169" type="line"/>
      <point x="147" y="30" type="line"/>
      <point x="44" y="30" type="line"/>
      <point x="44" y="0" type="line"/>
      <point x="266" y="0" type="line"/>
      <point x="266" y="30" type="line"/>
      <point x="177" y="30" type="line"/>
      <point x="177" y="200" type="line"/>
    </contour>
  </outline>
</glyph>
<glyph name="two" format="1">
  <advance width="300"/>
  <unicode hex="0032"/>
  <outline>
    <contour>
      <point x="41" y="0" type="curve"/>
      <point x="259" y="0" type="line"/>
      <point x="259" y="30" type="line"/>
      <point x="87" y="30" type="line"/>
      <point x="93.0192157669" y="48.0576473008"/>
      <point x="138.71908909" y="66.5730296966"/>
      <point x="185" y="82" type="curve" smooth="yes"/>
      <point x="221" y="94"/>
      <point x="249" y="119"/>
      <point x="249" y="144" type="curve" smooth="yes"/>
      <point x="249" y="185"/>
      <point x="215" y="206"/>
      <point x="150" y="206" type="curve" smooth="yes"/>
      <point x="87.38" y="206.0"/>
      <point x="49.0" y="182.0"/>
      <point x="49" y="139" type="curve"/>
      <point x="80" y="139" type="line"/>
      <point x="80.9743844383" y="160.436457643"/>
      <point x="102.0" y="177.0"/>
      <point x="150" y="177" type="curve" smooth="yes"/>
      <point x="199.0" y="177.0"/>
      <point x="219.0" y="164.647058824"/>
      <point x="219" y="142" type="curve" smooth="yes"/>
      <point x="219" y="133"/>
      <point x="191" y="112"/>
      <point x="166" y="105" type="curve" smooth="yes"/>
      <point x="130" y="95"/>
      <point x="41" y="58"/>
    </contour>
  </outline>
</glyph>
<glyph name="three" format="1">
  <advance width="300"/>
  <unicode hex="0033"/>
  <outline>
    <contour>
      <point x="151" y="-6" type="curve" smooth="yes"/>
      <point x="217" y="-6"/>
      <point x="254" y="18"/>
      <point x="254" y="64" type="curve"/>
      <point x="254" y="79"/>
      <point x="247" y="98"/>
      <point x="230" y="105" type="curve"/>
      <point x="246" y="111"/>
      <point x="254" y="125"/>
      <point x="254" y="144" type="curve"/>
      <point x="254" y="185"/>
      <point x="217" y="206"/>
      <point x="151" y="206" type="curve" smooth="yes"/>
      <point x="92.0" y="206.0"/>
      <point x="47.0" y="184.0"/>
      <point x="47" y="152" type="curve"/>
      <point x="83" y="152" type="line"/>
      <point x="87.0060377995" y="173.031698447"/>
      <point x="116.352112676" y="176.0"/>
      <point x="157" y="176" type="curve" smooth="yes"/>
      <point x="195" y="176"/>
      <point x="223" y="164"/>
      <point x="223" y="148" type="curve"/>
      <point x="223" y="119"/>
      <point x="177" y="118"/>
      <point x="133" y="118" type="curve"/>
      <point x="133" y="92" type="line"/>
      <point x="178" y="92"/>
      <point x="224" y="91"/>
      <point x="224" y="62" type="curve"/>
      <point x="224.0" y="33.5"/>
      <point x="202" y="24"/>
      <point x="152" y="24" type="curve" smooth="yes"/>
      <point x="103" y="24"/>
      <point x="81.347975444" y="32.1729571586"/>
      <point x="77" y="60" type="curve"/>
      <point x="46" y="60" type="line"/>
      <point x="47" y="15"/>
      <point x="87" y="-6"/>
    </contour>
  </outline>
</glyph>
<glyph name="four" format="1">
  <advance width="300"/>
  <unicode hex="0034"/>
  <outline>
    <contour>
      <point x="227" y="0" type="line"/>
      <point x="227" y="48" type="line"/>
      <point x="277" y="48" type="line"/>
      <point x="277" y="76" type="line"/>
      <point x="227" y="76" type="line"/>
      <point x="227" y="200" type="line"/>
      <point x="195" y="200" type="line"/>
      <point x="39" y="76" type="line"/>
      <point x="39" y="48" type="line"/>
      <point x="196" y="48" type="line"/>
      <point x="196" y="0" type="line"/>
    </contour>
    <contour>
      <point x="186" y="158" type="line"/>
      <point x="193" y="164"/>
      <point x="194.0" y="168.0"/>
      <point x="194" y="168" type="curve"/>
      <point x="197" y="168" type="line"/>
      <point x="197" y="168"/>
      <point x="197.0" y="149.52"/>
      <point x="197" y="146" type="curve" name="_p_cornerRadius:9.0"/>
      <point x="197" y="76" type="line"/>
      <point x="82" y="76" type="line"/>
    </contour>
  </outline>
</glyph>
<glyph name="five" format="1">
  <advance width="300"/>
  <unicode hex="0035"/>
  <outline>
    <contour>
      <point x="154" y="136" type="curve"/>
      <point x="126" y="136"/>
      <point x="96" y="135"/>
      <point x="82" y="117" type="curve"/>
      <point x="80" y="171" type="line"/>
      <point x="240" y="171" type="line"/>
      <point x="240" y="200" type="line"/>
      <point x="53" y="200" type="line"/>
      <point x="52" y="83" type="line"/>
      <point x="79" y="83" type="line"/>
      <point x="100" y="100"/>
      <point x="118" y="106"/>
      <point x="149" y="106" type="curve"/>
      <point x="201" y="106"/>
      <point x="224" y="95"/>
      <point x="224" y="64" type="curve"/>
      <point x="224" y="36"/>
      <point x="201" y="24"/>
      <point x="148" y="24" type="curve" smooth="yes"/>
      <point x="98" y="24"/>
      <point x="79" y="33"/>
      <point x="75" y="54" type="curve"/>
      <point x="45" y="51" type="line"/>
      <point x="51" y="10"/>
      <point x="82" y="-6"/>
      <point x="148" y="-6" type="curve" smooth="yes"/>
      <point x="223" y="-6"/>
      <point x="255" y="15"/>
      <point x="255" y="64" type="curve"/>
      <point x="253" y="116"/>
      <point x="224" y="136"/>
    </contour>
  </outline>
</glyph>
<glyph name="six" format="1">
  <advance width="300"/>
  <unicode hex="0036"/>
  <outline>
    <contour>
      <point x="151" y="24" type="curve" smooth="yes"/>
      <point x="101" y="24"/>
      <point x="76" y="37"/>
      <point x="76" y="65" type="curve" smooth="yes"/>
      <point x="76" y="90"/>
      <point x="102.351351351" y="101.0"/>
      <point x="151" y="101" type="curve" smooth="yes"/>
      <point x="202" y="101"/>
      <point x="225" y="91"/>
      <point x="225" y="62" type="curve" smooth="yes"/>
      <point x="225.0" y="36.0909090909"/>
      <point x="198" y="24"/>
    </contour>
    <contour>
      <point x="151" y="-6" type="curve" smooth="yes"/>
      <point x="224" y="-6"/>
      <point x="255" y="18"/>
      <point x="255" y="62" type="curve" smooth="yes"/>
      <point x="255" y="107"/>
      <point x="213" y="131"/>
      <point x="153" y="131" type="curve" smooth="yes"/>
      <point x="116.532467532" y="131.0"/>
      <point x="86.0070868245" y="125.021260474"/>
      <point x="81" y="110" type="curve"/>
      <point x="77" y="110" type="line"/>
      <point x="77.0" y="161.0"/>
      <point x="97.303030303" y="176.0"/>
      <point x="144" y="176" type="curve" smooth="yes"/>
      <point x="190" y="176"/>
      <point x="215" y="168"/>
      <point x="220" y="152" type="curve"/>
      <point x="250" y="152" type="line"/>
      <point x="244" y="189"/>
      <point x="207" y="206"/>
      <point x="150" y="206" type="curve" smooth="yes"/>
      <point x="75.2884615385" y="206.0"/>
      <point x="45.0" y="187.0"/>
      <point x="45" y="98" type="curve" smooth="yes"/>
      <point x="45.0" y="13.0"/>
      <point x="68.219047619" y="-6.0"/>
    </contour>
  </outline>
</glyph>
<glyph name="seven" format="1">
  <advance width="300"/>
  <unicode hex="0037"/>
  <outline>
    <contour>
      <point x="192" y="91" type="curve" smooth="yes"/>
      <point x="225.678446991" y="120.716276757"/>
      <point x="260.0" y="158.5"/>
      <point x="260" y="181" type="curve"/>
      <point x="260" y="200" type="line"/>
      <point x="39" y="200" type="line"/>
      <point x="39" y="170" type="line"/>
      <point x="225" y="170" type="line"/>
      <point x="221.924172893" y="162.823070083"/>
      <point x="188.390055744" y="127.362194619"/>
      <point x="160" y="101" type="curve" smooth="yes"/>
      <point x="133" y="76"/>
      <point x="100" y="31"/>
      <point x="100" y="0" type="curve"/>
      <point x="135" y="0" type="line"/>
      <point x="135.0" y="29.6516853933"/>
      <point x="166.753277599" y="68.7828842873"/>
    </contour>
  </outline>
</glyph>
<glyph name="eight" format="1">
  <advance width="300"/>
  <unicode hex="0038"/>
  <outline>
    <contour>
      <point x="150" y="115" type="curve"/>
      <point x="103" y="115"/>
      <point x="79.0" y="124.9"/>
      <point x="79" y="148" type="curve" smooth="yes"/>
      <point x="79.0" y="165.0"/>
      <point x="106.611111111" y="178.0"/>
      <point x="150" y="178" type="curve" smooth="yes"/>
      <point x="193.388888889" y="178.0"/>
      <point x="221.0" y="165.0"/>
      <point x="221" y="148" type="curve" smooth="yes"/>
      <point x="221.0" y="124.9"/>
      <point x="197" y="115"/>
    </contour>
    <contour>
      <point x="150" y="22" type="curve"/>
      <point x="93.0" y="22.0"/>
      <point x="75.0" y="35.2682926829"/>
      <point x="75" y="56" type="curve" smooth="yes"/>
      <point x="75.0" y="76.625"/>
      <point x="98.0" y="86.0"/>
      <point x="150" y="86" type="curve" smooth="yes"/>
      <point x="202.0" y="86.0"/>
      <point x="225.0" y="76.625"/>
      <point x="225" y="56" type="curve" smooth="yes"/>
      <point x="225.0" y="35.2682926829"/>
      <point x="207.0" y="22.0"/>
    </contour>
    <contour>
      <point x="150" y="-7" type="curve" smooth="yes"/>
      <point x="228.417721519" y="-7.0"/>
      <point x="255.0" y="13.3538461538"/>
      <point x="255" y="56" type="curve" smooth="yes"/>
      <point x="255.0" y="83.44"/>
      <point x="239.765416508" y="94.1075174341"/>
      <point x="216" y="105" type="curve"/>
      <point x="235.358391429" y="116.207489774"/>
      <point x="252.0" y="130.756097561"/>
      <point x="252" y="149" type="curve" smooth="yes"/>
      <point x="252.0" y="189.0"/>
      <point x="217.105263158" y="206.0"/>
      <point x="150" y="206" type="curve"/>
      <point x="82.8947368421" y="206.0"/>
      <point x="48.0" y="189.0"/>
      <point x="48" y="149" type="curve" smooth="yes"/>
      <point x="48.0" y="130.756097561"/>
      <point x="64.6416085714" y="116.207489774"/>
      <point x="84" y="105" type="curve"/>
      <point x="61.241150703" y="94.1153329449"/>
      <point x="45.0" y="83.44"/>
      <point x="45" y="56" type="curve" smooth="yes"/>
      <point x="45.0" y="12.3846153846"/>
      <point x="71.582278481" y="-7.0"/>
    </contour>
  </outline>
</glyph>
<glyph name="nine" format="1">
  <advance width="300"/>
  <unicode hex="0039"/>
  <outline>
    <contour>
      <point x="149" y="176" type="curve" smooth="yes"/>
      <point x="198.0" y="176.0"/>
      <point x="222.0" y="164.725"/>
      <point x="222" y="135" type="curve" smooth="yes"/>
      <point x="222" y="111"/>
      <point x="189" y="103"/>
      <point x="149" y="103" type="curve" smooth="yes"/>
      <point x="99" y="103"/>
      <point x="76" y="111"/>
      <point x="76" y="138" type="curve" smooth="yes"/>
      <point x="76.0" y="165.72972973"/>
      <point x="100.0" y="176.0"/>
    </contour>
    <contour>
      <point x="149" y="206" type="curve" smooth="yes"/>
      <point x="75" y="206"/>
      <point x="46" y="182"/>
      <point x="46" y="138" type="curve" smooth="yes"/>
      <point x="46" y="95"/>
      <point x="86" y="73"/>
      <point x="147" y="73" type="curve" smooth="yes"/>
      <point x="184" y="73"/>
      <point x="215" y="78"/>
      <point x="220" y="90" type="curve"/>
      <point x="224" y="90" type="line"/>
      <point x="224" y="41"/>
      <point x="202" y="24"/>
      <point x="150" y="24" type="curve" smooth="yes"/>
      <point x="106" y="24"/>
      <point x="81" y="27"/>
      <point x="77" y="48" type="curve"/>
      <point x="47" y="48" type="line"/>
      <point x="52" y="9"/>
      <point x="85" y="-6"/>
      <point x="149" y="-6" type="curve" smooth="yes"/>
      <point x="223" y="-6"/>
      <point x="253" y="13"/>
      <point x="253" y="100" type="curve" smooth="yes"/>
      <point x="253" y="187"/>
      <point x="230" y="206"/>
    </contour>
  </outline>
</glyph>
<glyph name="A" format="1">
  <advance width="300"/>
  <unicode hex="0041"/>
  <outline>
    <contour>
      <point x="248.0" y="50.0" type="line"/>
      <point x="51.0" y="50.0" type="line"/>
      <point x="61.0" y="79.0" type="line"/>
      <point x="238.0" y="79.0" type="line"/>
    </contour>
    <contour>
      <point x="265" y="0" type="line"/>
      <point x="170" y="141" type="line"/>
      <point x="163" y="151"/>
      <point x="154" y="164"/>
      <point x="154" y="168" type="curve"/>
      <point x="144" y="168" type="line"/>
      <point x="144" y="164"/>
      <point x="135" y="151"/>
      <point x="128" y="141" type="curve"/>
      <point x="34" y="0" type="line"/>
      <point x="0" y="0" type="line"/>
      <point x="132" y="202" type="line"/>
      <point x="166" y="202" type="line"/>
      <point x="300" y="0" type="line"/>
    </contour>
  </outline>
</glyph>
<glyph name="B" format="1">
  <advance width="300"/>
  <unicode hex="0042"/>
  <outline>
    <contour>
      <point x="70.0" y="0.0" type="line"/>
      <point x="40.0" y="0.0" type="line"/>
      <point x="40.0" y="200.0" type="line"/>
      <point x="70.0" y="200.0" type="line"/>
    </contour>
    <contour>
      <point x="171.0" y="87.0" type="curve"/>
      <point x="171.0" y="114.0" type="line"/>
      <point x="204.771929825" y="114.0"/>
      <point x="226.0" y="126.0"/>
      <point x="226.0" y="145.0" type="curve" smooth="yes"/>
      <point x="226" y="164"/>
      <point x="207" y="173"/>
      <point x="171.0" y="173.0" type="curve" smooth="yes"/>
      <point x="50.0" y="173.0" type="line"/>
      <point x="50.0" y="200.0" type="line"/>
      <point x="171.0" y="200.0" type="line" smooth="yes"/>
      <point x="227" y="200"/>
      <point x="256" y="181"/>
      <point x="256.0" y="145.0" type="curve" smooth="yes"/>
      <point x="256" y="109"/>
      <point x="223" y="87"/>
    </contour>
    <contour>
      <point x="186.0" y="0.0" type="curve" smooth="yes"/>
      <point x="50.0" y="0.0" type="line"/>
      <point x="50.0" y="27.0" type="line"/>
      <point x="186.0" y="27.0" type="line" smooth="yes"/>
      <point x="219.771929825" y="27.0"/>
      <point x="241.0" y="38.0"/>
      <point x="241.0" y="55.0" type="curve" smooth="yes"/>
      <point x="241.0" y="75.0"/>
      <point x="219.771929825" y="87.0"/>
      <point x="186.0" y="87.0" type="curve" smooth="yes"/>
      <point x="50.0" y="87.0" type="line"/>
      <point x="50.0" y="114.0" type="line"/>
      <point x="186.0" y="114.0" type="line" smooth="yes"/>
      <point x="238" y="114"/>
      <point x="271" y="91"/>
      <point x="271.0" y="55.0" type="curve" smooth="yes"/>
      <point x="271" y="21"/>
      <point x="238" y="0"/>
    </contour>
  </outline>
</glyph>
<glyph name="C" format="1">
  <advance width="300"/>
  <unicode hex="0043"/>
  <outline>
    <contour>
      <point x="242.0" y="41.0" type="line"/>
      <point x="211" y="26"/>
      <point x="180" y="22"/>
      <point x="163" y="22" type="curve" smooth="yes"/>
      <point x="103.0" y="22.0"/>
      <point x="63" y="55"/>
      <point x="63.0" y="100.0" type="curve" smooth="yes"/>
      <point x="63" y="145"/>
      <point x="106" y="178"/>
      <point x="166" y="178" type="curve" smooth="yes"/>
      <point x="177.985454559" y="178.0"/>
      <point x="212.917608159" y="174.009691084"/>
      <point x="241.894523565" y="158.058128884" type="curve"/>
      <point x="268.604109924" y="177.334699659" type="line"/>
      <point x="238.116373797" y="197.638822407"/>
      <point x="198.771127701" y="206.0"/>
      <point x="166" y="206" type="curve" smooth="yes"/>
      <point x="87.0" y="206.0"/>
      <point x="31" y="162"/>
      <point x="31.0" y="100.0" type="curve" smooth="yes"/>
      <point x="31" y="38"/>
      <point x="84.0" y="-6.0"/>
      <point x="163" y="-6" type="curve" smooth="yes"/>
      <point x="195" y="-6"/>
      <point x="237" y="5"/>
      <point x="269.0" y="26.0" type="curve"/>
    </contour>
  </outline>
</glyph>
<glyph name="D" format="1">
  <advance width="300"/>
  <unicode hex="0044"/>
  <outline>
    <contour>
      <point x="40" y="0" type="line"/>
      <point x="126" y="0" type="line" smooth="yes"/>
      <point x="231" y="0"/>
      <point x="280" y="32"/>
      <point x="280" y="100" type="curve" smooth="yes"/>
      <point x="280" y="168"/>
      <point x="231" y="200"/>
      <point x="126" y="200" type="curve" smooth="yes"/>
      <point x="40" y="200" type="line"/>
    </contour>
    <contour>
      <point x="70" y="27" type="line"/>
      <point x="70" y="173" type="line"/>
      <point x="126" y="173" type="line" smooth="yes"/>
      <point x="211" y="173"/>
      <point x="250" y="150"/>
      <point x="250" y="100" type="curve" smooth="yes"/>
      <point x="250" y="50"/>
      <point x="211" y="27"/>
      <point x="126" y="27" type="curve" smooth="yes"/>
    </contour>
  </outline>
</glyph>
<glyph name="E" format="1">
  <advance width="300"/>
  <unicode hex="0045"/>
  <outline>
    <contour>
      <point x="51.0" y="0" type="line"/>
      <point x="256.0" y="0" type="line"/>
      <point x="256.0" y="27.0" type="line"/>
      <point x="81" y="27" type="line"/>
      <point x="81" y="87" type="line"/>
      <point x="206.0" y="87.0" type="line"/>
      <point x="206.0" y="114.0" type="line"/>
      <point x="81" y="114" type="line"/>
      <point x="81" y="173" type="line"/>
      <point x="256" y="173" type="line"/>
      <point x="256.0" y="200.0" type="line"/>
      <point x="51.0" y="200.0" type="line"/>
    </contour>
  </outline>
</glyph>
<glyph name="F" format="1">
  <advance width="300"/>
  <unicode hex="0046"/>
  <outline>
    <contour>
      <point x="50.0" y="0" type="line"/>
      <point x="50.0" y="200.0" type="line"/>
      <point x="270" y="200.0" type="line"/>
      <point x="270" y="173" type="line"/>
      <point x="80" y="173" type="line"/>
      <point x="80" y="114.0" type="line"/>
      <point x="210.0" y="114.0" type="line"/>
      <point x="210.0" y="87.0" type="line"/>
      <point x="80" y="87.0" type="line"/>
      <point x="80" y="0" type="line"/>
    </contour>
  </outline>
</glyph>
<glyph name="G" format="1">
  <advance width="300"/>
  <unicode hex="0047"/>
  <outline>
    <contour>
      <point x="280" y="104" type="line"/>
      <point x="150" y="104" type="line"/>
      <point x="150" y="77" type="line"/>
      <point x="249" y="77" type="line"/>
      <point x="249" y="44"/>
      <point x="206" y="19"/>
      <point x="150" y="19" type="curve" smooth="yes"/>
      <point x="94" y="19"/>
      <point x="51" y="54"/>
      <point x="51" y="101" type="curve" smooth="yes"/>
      <point x="51" y="148"/>
      <point x="92" y="181"/>
      <point x="150" y="181" type="curve" smooth="yes"/>
      <point x="169" y="181"/>
      <point x="205" y="172"/>
      <point x="236" y="160" type="curve"/>
      <point x="262" y="179" type="line"/>
      <point x="229" y="196"/>
      <point x="183" y="208"/>
      <point x="150" y="208" type="curve" smooth="yes"/>
      <point x="74" y="208"/>
      <point x="20" y="164"/>
      <point x="20" y="101" type="curve" smooth="yes"/>
      <point x="20" y="39"/>
      <point x="76" y="-8"/>
      <point x="150" y="-8" type="curve" smooth="yes"/>
      <point x="224" y="-8"/>
      <point x="280" y="29"/>
      <point x="280" y="77" type="curve"/>
    </contour>
  </outline>
</glyph>
<glyph name="H" format="1">
  <advance width="300"/>
  <unicode hex="0048"/>
  <outline>
    <contour>
      <point x="40" y="0" type="line"/>
      <point x="71" y="0" type="line"/>
      <point x="71" y="86" type="line"/>
      <point x="230" y="86" type="line"/>
      <point x="230" y="0" type="line"/>
      <point x="260" y="0" type="line"/>
      <point x="260" y="200" type="line"/>
      <point x="230" y="200" type="line"/>
      <point x="230" y="117" type="line"/>
      <point x="71" y="117" type="line"/>
      <point x="71" y="200" type="line"/>
      <point x="40" y="200" type="line"/>
    </contour>
  </outline>
</glyph>
<glyph name="I" format="1">
  <advance width="300"/>
  <unicode hex="0049"/>
  <outline>
    <contour>
      <point x="55" y="0" type="line"/>
      <point x="245" y="0" type="line"/>
      <point x="245" y="27" type="line"/>
      <point x="165" y="27" type="line"/>
      <point x="165" y="173" type="line"/>
      <point x="245" y="173" type="line"/>
      <point x="245" y="200" type="line"/>
      <point x="55" y="200" type="line"/>
      <point x="55" y="173" type="line"/>
      <point x="136" y="173" type="line"/>
      <point x="136" y="27" type="line"/>
      <point x="55" y="27" type="line"/>
    </contour>
  </outline>
</glyph>
<glyph name="J" format="1">
  <advance width="300"/>
  <unicode hex="004A"/>
  <outline>
    <contour>
      <point x="150" y="-8" type="curve" smooth="yes"/>
      <point x="219" y="-8"/>
      <point x="261" y="40"/>
      <point x="261" y="102" type="curve"/>
      <point x="261" y="200" type="line"/>
      <point x="80" y="200" type="line"/>
      <point x="80" y="172" type="line"/>
      <point x="231" y="172" type="line"/>
      <point x="231" y="104" type="line"/>
      <point x="231" y="56"/>
      <point x="200" y="20"/>
      <point x="150" y="20" type="curve" smooth="yes"/>
      <point x="92" y="20"/>
      <point x="59" y="56"/>
      <point x="59" y="104" type="curve"/>
      <point x="30.0" y="104.0" type="line"/>
      <point x="30" y="40"/>
      <point x="76" y="-8"/>
    </contour>
  </outline>
</glyph>
<glyph name="K" format="1">
  <advance width="300"/>
  <unicode hex="004B"/>
  <outline>
    <contour>
      <point x="32" y="0" type="line"/>
      <point x="62" y="0" type="line"/>
      <point x="62" y="79" type="line"/>
      <point x="101" y="102" type="line"/>
      <point x="228" y="0" type="line"/>
      <point x="278" y="0" type="line"/>
      <point x="132" y="119" type="line"/>
      <point x="271" y="200" type="line"/>
      <point x="216" y="200" type="line"/>
      <point x="66" y="117" type="line"/>
      <point x="62" y="119" type="line"/>
      <point x="62" y="200" type="line"/>
      <point x="32" y="200" type="line"/>
    </contour>
  </outline>
</glyph>
<glyph name="L" format="1">
  <advance width="300"/>
  <unicode hex="004C"/>
  <outline>
    <contour>
      <point x="81.0" y="0.0" type="line"/>
      <point x="50.0" y="0.0" type="line"/>
      <point x="50.0" y="200.0" type="line"/>
      <point x="81.0" y="200.0" type="line"/>
    </contour>
    <contour>
      <point x="270.0" y="0.0" type="line"/>
      <point x="50.0" y="0.0" type="line"/>
      <point x="50.0" y="27.0" type="line"/>
      <point x="270.0" y="27.0" type="line"/>
    </contour>
  </outline>
</glyph>
<glyph name="M" format="1">
  <advance width="300"/>
  <unicode hex="004D"/>
  <outline>
    <contour>
      <point x="74" y="0" type="line"/>
      <point x="74" y="141" type="line"/>
      <point x="134" y="0" type="line"/>
      <point x="166" y="0" type="line"/>
      <point x="226" y="137" type="line"/>
      <point x="226" y="0" type="line" smooth="yes"/>
      <point x="255" y="0" type="line"/>
      <point x="255" y="200" type="line"/>
      <point x="226" y="200" type="line"/>
      <point x="150.22749" y="30.33175" type="line"/>
      <point x="77" y="200" type="line"/>
      <point x="45" y="200" type="line" smooth="yes"/>
      <point x="45" y="0" type="line"/>
    </contour>
  </outline>
</glyph>
<glyph name="N" format="1">
  <advance width="300"/>
  <unicode hex="004E"/>
  <outline>
    <contour>
      <point x="70" y="0" type="line"/>
      <point x="70" y="127" type="line" smooth="yes"/>
      <point x="70.0" y="140.0"/>
      <point x="70" y="150"/>
      <point x="67" y="157" type="curve"/>
      <point x="72" y="159" type="line"/>
      <point x="75" y="152"/>
      <point x="81.9023595129" y="144.901288534"/>
      <point x="91" y="136" type="curve" smooth="yes"/>
      <point x="230" y="0" type="line"/>
      <point x="260" y="0" type="line"/>
      <point x="260" y="200" type="line"/>
      <point x="230" y="200" type="line"/>
      <point x="230" y="71" type="line" smooth="yes"/>
      <point x="230.0" y="58.0"/>
      <point x="230" y="48"/>
      <point x="233" y="41" type="curve"/>
      <point x="228" y="39" type="line"/>
      <point x="225" y="46"/>
      <point x="218.096248353" y="53.0972888458"/>
      <point x="209" y="62" type="curve" smooth="yes"/>
      <point x="68" y="200" type="line"/>
      <point x="40" y="200" type="line"/>
      <point x="40" y="0" type="line"/>
    </contour>
  </outline>
</glyph>
<glyph name="O" format="1">
  <advance width="300"/>
  <unicode hex="004F"/>
  <outline>
    <contour>
      <point x="150" y="-8" type="curve" smooth="yes"/>
      <point x="82.0" y="-8.0"/>
      <point x="30.0" y="39.7692307692"/>
      <point x="30.0" y="100.0" type="curve" smooth="yes"/>
      <point x="30.0" y="159.766990291"/>
      <point x="82.0" y="208.0"/>
      <point x="150" y="208" type="curve" smooth="yes"/>
      <point x="218.0" y="208.0"/>
      <point x="270.0" y="159.766990291"/>
      <point x="270.0" y="100.0" type="curve" smooth="yes"/>
      <point x="270.0" y="39.7692307692"/>
      <point x="218.0" y="-8.0"/>
    </contour>
    <contour>
      <point x="150" y="181" type="curve" smooth="yes"/>
      <point x="100.430894309" y="181.0"/>
      <point x="61.0" y="142.631578947"/>
      <point x="61.0" y="100.0" type="curve" smooth="yes"/>
      <point x="61.0" y="56.8701298701"/>
      <point x="100.430894309" y="19.0"/>
      <point x="150" y="19" type="curve" smooth="yes"/>
      <point x="200.308943089" y="19.0"/>
      <point x="239.0" y="56.8701298701"/>
      <point x="239.0" y="100.0" type="curve" smooth="yes"/>
      <point x="239.0" y="142.631578947"/>
      <point x="200.308943089" y="181.0"/>
    </contour>
  </outline>
</glyph>
<glyph name="P" format="1">
  <advance width="300"/>
  <unicode hex="0050"/>
  <outline>
    <contour>
      <point x="40" y="0" type="line"/>
      <point x="70" y="0" type="line"/>
      <point x="70" y="70" type="line"/>
      <point x="176" y="70" type="line"/>
      <point x="235" y="70"/>
      <point x="270" y="94"/>
      <point x="270" y="135" type="curve" smooth="yes"/>
      <point x="270" y="176"/>
      <point x="235" y="200"/>
      <point x="176" y="200" type="curve" smooth="yes"/>
      <point x="40" y="200.0" type="line"/>
    </contour>
    <contour>
      <point x="171" y="173" type="line" smooth="yes"/>
      <point x="214" y="173"/>
      <point x="240" y="159"/>
      <point x="240" y="135" type="curve" smooth="yes"/>
      <point x="240" y="112"/>
      <point x="214" y="98"/>
      <point x="171" y="98" type="curve"/>
      <point x="70" y="98.0" type="line"/>
      <point x="70" y="173" type="line"/>
    </contour>
  </outline>
</glyph>
<glyph name="Q" format="1">
  <advance width="300"/>
  <unicode hex="0051"/>
  <outline>
    <contour>
      <point x="145" y="-8" type="curve" smooth="yes"/>
      <point x="65.6666666667" y="-8.0"/>
      <point x="20.0" y="42.0"/>
      <point x="20.0" y="100.0" type="curve" smooth="yes"/>
      <point x="20.0" y="157.0"/>
      <point x="65.6666666667" y="208.0"/>
      <point x="145" y="208" type="curve" smooth="yes"/>
      <point x="218" y="208"/>
      <point x="271" y="163"/>
      <point x="271.0" y="100.0" type="curve" smooth="yes"/>
      <point x="271.0" y="42.0"/>
      <point x="224.370860927" y="-8.0"/>
    </contour>
    <contour>
      <point x="145" y="181" type="curve" smooth="yes"/>
      <point x="83.4471544715" y="181.0"/>
      <point x="49.0" y="140.0"/>
      <point x="49.0" y="100.0" type="curve" smooth="yes"/>
      <point x="49.0" y="59.0"/>
      <point x="83.4471544715" y="19.0"/>
      <point x="145" y="19" type="curve" smooth="yes"/>
      <point x="207.471544715" y="19.0"/>
      <point x="241.0" y="59.0"/>
      <point x="241.0" y="100.0" type="curve" smooth="yes"/>
      <point x="241" y="147"/>
      <point x="201" y="181"/>
    </contour>
    <contour>
      <point x="291" y="-8" type="line"/>
      <point x="145" y="-8" type="line"/>
      <point x="145" y="19" type="line"/>
      <point x="291" y="19" type="line"/>
    </contour>
  </outline>
</glyph>
<glyph name="R" format="1">
  <advance width="300"/>
  <unicode hex="0052"/>
  <outline>
    <contour>
      <point x="224" y="0" type="line"/>
      <point x="260.0" y="0.0" type="line"/>
      <point x="198.0" y="107.0" type="line"/>
      <point x="173" y="91" type="line"/>
    </contour>
    <contour>
      <point x="50.0" y="0.0" type="line"/>
      <point x="80" y="0" type="line"/>
      <point x="80" y="79" type="line"/>
      <point x="185" y="79" type="line"/>
      <point x="192" y="77" type="line"/>
      <point x="235" y="77"/>
      <point x="259" y="98"/>
      <point x="259.0" y="139.0" type="curve" smooth="yes"/>
      <point x="259" y="185"/>
      <point x="229" y="200"/>
      <point x="167.0" y="200.0" type="curve" smooth="yes"/>
      <point x="50.0" y="200.0" type="line"/>
    </contour>
    <contour>
      <point x="167" y="173" type="line" smooth="yes"/>
      <point x="210" y="173"/>
      <point x="229.0" y="163.0"/>
      <point x="229" y="140" type="curve" smooth="yes"/>
      <point x="229.0" y="117.0"/>
      <point x="212.0" y="107.0"/>
      <point x="167" y="107" type="curve"/>
      <point x="80" y="107" type="line"/>
      <point x="80" y="173" type="line"/>
    </contour>
  </outline>
</glyph>
<glyph name="S" format="1">
  <advance width="300"/>
  <unicode hex="0053"/>
  <outline>
    <contour>
      <point x="150" y="113" type="curve" smooth="yes"/>
      <point x="104" y="122"/>
      <point x="76" y="130"/>
      <point x="76" y="149" type="curve"/>
      <point x="76" y="167"/>
      <point x="106" y="181"/>
      <point x="145" y="181" type="curve" smooth="yes"/>
      <point x="184.018018018" y="181.0"/>
      <point x="213.792574714" y="171.281492484"/>
      <point x="225.0" y="156.0" type="curve"/>
      <point x="256.0" y="160.0" type="line"/>
      <point x="244" y="190"/>
      <point x="205" y="208"/>
      <point x="154" y="208" type="curve" smooth="yes"/>
      <point x="87" y="208"/>
      <point x="45" y="185"/>
      <point x="45" y="149" type="curve"/>
      <point x="45" y="118"/>
      <point x="74" y="100"/>
      <point x="148" y="84" type="curve" smooth="yes"/>
      <point x="205" y="72"/>
      <point x="227" y="67"/>
      <point x="227" y="49" type="curve"/>
      <point x="227" y="29"/>
      <point x="196" y="19"/>
      <point x="152" y="19" type="curve" smooth="yes"/>
      <point x="111" y="19"/>
      <point x="80" y="31"/>
      <point x="68" y="52" type="curve"/>
      <point x="35" y="54" type="line"/>
      <point x="35" y="22"/>
      <point x="85" y="-8"/>
      <point x="152" y="-8" type="curve" smooth="yes"/>
      <point x="224" y="-8"/>
      <point x="259" y="11"/>
      <point x="259" y="49" type="curve" smooth="yes"/>
      <point x="259" y="79"/>
      <point x="237" y="96"/>
    </contour>
  </outline>
</glyph>
<glyph name="T" format="1">
  <advance width="300"/>
  <unicode hex="0054"/>
  <outline>
    <contour>
      <point x="166" y="0" type="line"/>
      <point x="134" y="0" type="line"/>
      <point x="134" y="200" type="line"/>
      <point x="166" y="200" type="line"/>
    </contour>
    <contour>
      <point x="280" y="172" type="line"/>
      <point x="20" y="172" type="line"/>
      <point x="20.0" y="200.0" type="line"/>
      <point x="280.0" y="200.0" type="line"/>
    </contour>
  </outline>
</glyph>
<glyph name="U" format="1">
  <advance width="300"/>
  <unicode hex="0055"/>
  <outline>
    <contour>
      <point x="40.0" y="97.0" type="line"/>
      <point x="40.0" y="27.0"/>
      <point x="83" y="-8"/>
      <point x="150" y="-8" type="curve" smooth="yes"/>
      <point x="217" y="-8"/>
      <point x="260.0" y="27.0"/>
      <point x="260.0" y="97.0" type="curve"/>
      <point x="260.0" y="200.0" type="line"/>
      <point x="229.0" y="200.0" type="line" smooth="yes"/>
      <point x="229.0" y="99.0" type="line"/>
      <point x="229" y="50"/>
      <point x="198" y="20"/>
      <point x="150" y="20" type="curve" smooth="yes"/>
      <point x="102" y="20"/>
      <point x="72" y="50"/>
      <point x="72" y="99" type="curve"/>
      <point x="72" y="200" type="line"/>
      <point x="40.0" y="200.0" type="line"/>
    </contour>
  </outline>
</glyph>
<glyph name="V" format="1">
  <advance width="300"/>
  <unicode hex="0056"/>
  <outline>
    <contour>
      <point x="130.0" y="0.0" type="line"/>
      <point x="170.0" y="0.0" type="line"/>
      <point x="300" y="200.0" type="line"/>
      <point x="263" y="200" type="line"/>
      <point x="149.96016" y="27.93625" type="line"/>
      <point x="36" y="200" type="line"/>
      <point x="0" y="200.0" type="line"/>
    </contour>
  </outline>
</glyph>
<glyph name="W" format="1">
  <advance width="300"/>
  <unicode hex="0057"/>
  <outline>
    <contour>
      <point x="98.0" y="0" type="line"/>
      <point x="151.85135" y="117.21622" type="line"/>
      <point x="204.0" y="0" type="line"/>
      <point x="236.0" y="0" type="line"/>
      <point x="285" y="200.0" type="line"/>
      <point x="256" y="200.0" type="line"/>
      <point x="216.87543" y="40.67474" type="line"/>
      <point x="163" y="160" type="line"/>
      <point x="141" y="160" type="line"/>
      <point x="84.0742" y="40.86847" type="line"/>
      <point x="45.0" y="200.0" type="line"/>
      <point x="15.0" y="200.0" type="line"/>
      <point x="64" y="0" type="line"/>
    </contour>
  </outline>
</glyph>
<glyph name="Y" format="1">
  <advance width="300"/>
  <unicode hex="0059"/>
  <outline>
    <contour>
      <point x="136" y="0" type="line"/>
      <point x="165" y="0" type="line"/>
      <point x="165" y="84.31655" type="line"/>
      <point x="288.0" y="200.0" type="line"/>
      <point x="248.0" y="200.0" type="line"/>
      <point x="150.46288" y="110.34934" type="line"/>
      <point x="52.0" y="200.0" type="line"/>
      <point x="12.0" y="200.0" type="line"/>
      <point x="136" y="83.45324" type="line"/>
    </contour>
  </outline>
</glyph>
<glyph name="Z" format="1">
  <advance width="300"/>
  <unicode hex="005A"/>
  <outline>
    <contour>
      <point x="35" y="0" type="line"/>
      <point x="265" y="0" type="line"/>
      <point x="265" y="27" type="line"/>
      <point x="82" y="27" type="line"/>
      <point x="265" y="174" type="line"/>
      <point x="265" y="200" type="line"/>
      <point x="45" y="200" type="line"/>
      <point x="45" y="172" type="line"/>
      <point x="218" y="172" type="line"/>
      <point x="35" y="25" type="line"/>
    </contour>
  </outline>
</glyph>
<glyph name="dieresis" format="1">
  <advance width="200"/>
  <unicode hex="00A8"/>
  <outline>
    <contour>
      <point x="84" y="176" type="line"/>
      <point x="56" y="176" type="line"/>
      <point x="56" y="202" type="line"/>
      <point x="84" y="202" type="line"/>
    </contour>
    <contour>
      <point x="144" y="176" type="line"/>
      <point x="116" y="176" type="line"/>
      <point x="116" y="202" type="line"/>
      <point x="144" y="202" type="line"/>
    </contour>
  </outline>
</glyph>
<glyph name="acute" format="1">
  <advance width="300"/>
  <unicode hex="00B4"/>
  <outline>
    <contour>
      <point x="158" y="175" type="line"/>
      <point x="184" y="202" type="line"/>
      <point x="149" y="202" type="line"/>
      <point x="130" y="175" type="line"/>
      <point x="158" y="175" type="line"/>
      <point x="130" y="175" type="line"/>
    </contour>
  </outline>
</glyph>
<glyph name="Eacute" format="1">
  <advance width="300"/>
  <unicode hex="00C9"/>
  <outline>
    <contour>
      <point x="51" y="0" type="line"/>
      <point x="256" y="0" type="line"/>
      <point x="256" y="27" type="line"/>
      <point x="81" y="27" type="line"/>
      <point x="81" y="67" type="line"/>
      <point x="206" y="67" type="line"/>
      <point x="206" y="94" type="line"/>
      <point x="81" y="94" type="line"/>
      <point x="81" y="133" type="line"/>
      <point x="256" y="133" type="line"/>
      <point x="256" y="160" type="line"/>
      <point x="51" y="160" type="line"/>
    </contour>
    <component base="acute"/>
  </outline>
</glyph>
